<?xml version="1.0" encoding="utf-8"?>
<!-- Generator: Adobe Illustrator 24.1.0, SVG Export Plug-In . SVG Version: 6.00 Build 0)  -->
<svg version="1.1" id="Layer_1" xmlns="http://www.w3.org/2000/svg" xmlns:xlink="http://www.w3.org/1999/xlink" x="0px" y="0px"
	 viewBox="0 0 61.6 24.9" style="enable-background:new 0 0 61.6 24.9;" xml:space="preserve">
<style type="text/css">
	.st0{fill:#FFFFFF;}
	.st1{opacity:0.8;}
</style>
<g>
	<path class="st0" d="M11.6,8.5c-1.5,0-3.3,0-4.4,0c-0.8,0-1.1,0.1-1.1,0.7c0,0.9,3,0.4,5,2.4c0.8,0.8,1.2,2,1.2,3.2
		c0,1.9-1.4,4.2-5.7,4.2C4.3,19,0.3,19,0.3,19v-4.6c1.8,0,2.8,0,4.2,0c0.7,0,1.4,0.2,1.4-0.5c0-1.2-5.9-0.9-5.9-5.3
		c0-1.9,1.3-4.4,6-4.4c2.1,0,5.6,0,5.6,0V8.5z"/>
</g>
<g>
	<path class="st0" d="M22.7,4.1c3.5,0,6,3,6,7.4c0,4.6-2.8,7.5-6.9,7.5c-1.1,0-2.1,0.1-3.2,0.1v5.4h-5.3V4.2
		C13.4,4.2,21.3,4.1,22.7,4.1z M18.7,14c0.8,0.3,1.4,0.5,2,0.5c1.7,0,2.8-1.2,2.8-3c0-1.7-1.1-2.9-2.8-2.9c-0.7,0-2,0-2,0V14z"/>
</g>
<g>
	<path class="st0" d="M23.3,24.3c-0.4,0.1-0.9,0.2-1.3,0.2c-1.4,0-1.9-0.9-1.9-1.7c0-1,0.8-1.7,2-1.7c0.4,0,0.8,0.1,1.2,0.2v0.8
		c-0.3-0.2-0.7-0.3-1-0.3c-0.6,0-1,0.4-1,0.9c0,0.6,0.5,1,1.2,0.9v-0.4H22v-0.7h1.3V24.3z"/>
</g>
<g>
	<path class="st0" d="M24,21.1h1.9c0.9,0,1.3,0.4,1.3,1c0,0.4-0.2,0.6-0.5,0.8c0.2,0.1,0.4,0.3,0.5,0.7l0.4,0.9h-1.1l-0.2-0.5
		C26,23.3,25.8,23,25.5,23h-0.3v1.4H24V21.1z M25.5,22.5c0.4,0,0.6-0.2,0.6-0.4c0-0.3-0.2-0.4-0.6-0.4h-0.3v0.9H25.5z"/>
</g>
<g>
	<path class="st0" d="M29.2,21.1h1.2l1.5,3.3h-1.2l-0.2-0.5h-1.5l-0.2,0.5h-1.2L29.2,21.1z M30.3,23.3L29.8,22l-0.5,1.3H30.3z"/>
</g>
<g>
	<path class="st0" d="M32.3,21.1H34c1,0,1.3,0.5,1.3,1c0,0.5-0.3,1.1-1.4,1.1h-0.5v1.2h-1.2V21.1z M33.8,22.6c0.4,0,0.5-0.2,0.5-0.5
		c0-0.3-0.1-0.4-0.5-0.4h-0.3v0.9H33.8z"/>
</g>
<g>
	<path class="st0" d="M35.7,21.1h1.2v1.2h1.3v-1.2h1.2v3.3h-1.2v-1.3h-1.3v1.3h-1.2V21.1z"/>
</g>
<g>
	<path class="st0" d="M40,21.1h1.2v3.3H40V21.1z"/>
</g>
<g>
	<path class="st0" d="M44.9,24.2c-0.3,0.2-0.8,0.3-1.2,0.3c-1.4,0-1.9-0.9-1.9-1.7c0-1,0.7-1.7,1.9-1.7c0.4,0,0.8,0.1,1.2,0.2v1
		c-0.3-0.2-0.6-0.3-1-0.3c-0.6,0-0.9,0.3-0.9,0.8c0,0.5,0.4,0.8,1,0.8c0.3,0,0.6-0.1,1-0.3V24.2z"/>
</g>
<g>
	<path class="st0" d="M45.5,23.3c0.3,0.2,0.6,0.3,0.9,0.3c0.2,0,0.3-0.1,0.3-0.2c0-0.4-1.2-0.4-1.2-1.4c0-0.4,0.3-1,1.2-1
		c0.4,0,0.7,0.1,1,0.4v0.9c-0.3-0.3-0.6-0.4-0.8-0.4c-0.2,0-0.3,0.1-0.3,0.2c0,0.4,1.3,0.4,1.3,1.4c0,0.5-0.3,1-1.2,1
		c-0.4,0-0.8-0.1-1.2-0.2V23.3z"/>
</g>
<g>
	<path class="st0" d="M48.4,24.9c0.2-0.1,0.3-0.2,0.4-0.4c-0.2,0-0.3-0.2-0.3-0.3c0-0.2,0.2-0.4,0.4-0.4c0.3,0,0.4,0.2,0.4,0.5
		C49.3,24.6,48.9,25,48.4,24.9L48.4,24.9z"/>
</g>
<g>
	<path class="st0" d="M51.3,21.1h1.2v3.3h-1.2V21.1z"/>
</g>
<g>
	<path class="st0" d="M53.2,21.1h1l1.7,1.7l-0.1-1.7h1.2v3.3h-1l-1.7-1.7l0.1,1.7h-1.2V21.1z"/>
</g>
<path class="st0" d="M60.3,24c0-0.2,0.1-0.4,0.3-0.5c-0.3,0.1-0.6,0.1-0.9,0.1c-0.6,0-1-0.3-1-0.8c0-0.5,0.4-0.8,0.9-0.8
	c0.3,0,0.6,0.1,1,0.3v-1c-0.3-0.1-0.7-0.2-1.2-0.2c-1.2,0-1.9,0.8-1.9,1.7c0,0.8,0.5,1.7,1.9,1.7c0.4,0,0.7-0.1,1-0.1
	C60.4,24.2,60.3,24.1,60.3,24z"/>
<g>
	<path class="st0" d="M61.5,24c0,0.3-0.2,0.5-0.5,0.5c-0.3,0-0.5-0.2-0.5-0.5c0-0.3,0.2-0.5,0.5-0.5C61.3,23.5,61.5,23.7,61.5,24z"
		/>
</g>
<path class="st0" d="M33.9,4.1c-0.4,0.3-1,0.5-1.5,0.5c-0.6,0-1.1-0.2-1.5-0.5h-1.1V19H35V4.1H33.9z"/>
<g class="st1">
	<path class="st0" d="M30.2,2.1c0-1.2,0.9-2.1,2.1-2.1c1.2,0,2.1,0.9,2.1,2.1c0,1.2-0.9,2.1-2.1,2.1C31.2,4.2,30.2,3.3,30.2,2.1z"/>
</g>
<path class="st0" d="M48.3,4.9c-0.9-0.5-1.8-0.8-3.2-0.8c-0.3,0-1.2,0-1.5,0c-1.9,0-2.3,0-2.3,0h-4.8v6.4v2.1V19h5.3v-0.4v-6.5
	c0,0,0-0.1,0-0.1c0-0.1,0-0.3,0-0.5c0-1.6,0.9-3,2.5-3c0.3,0,0.8,0,1.2,0C46,7.1,46.9,5.9,48.3,4.9z"/>
<g>
	<g>
		<path class="st0" d="M53.6,4.4c5.8,0,8,3.9,8,7.4c0,3.8-2.5,7.4-7.9,7.4c-5.8,0-8-3.9-8-7.4C45.7,8.1,48,4.4,53.6,4.4z M53.6,14.5
			c1.6,0,2.6-1.1,2.6-2.8c0-1.6-1.1-2.8-2.6-2.8c-1.6,0-2.6,1.1-2.6,2.8C51,13.4,52.1,14.5,53.6,14.5z"/>
	</g>
</g>
<g>
	<g>
		<path class="st0" d="M53.6,4.4c5.8,0,8,3.9,8,7.4c0,3.8-2.5,7.4-7.9,7.4c-5.8,0-8-3.9-8-7.4C45.7,8.1,48,4.4,53.6,4.4z M53.6,14.5
			c1.6,0,2.6-1.1,2.6-2.8c0-1.6-1.1-2.8-2.6-2.8c-1.6,0-2.6,1.1-2.6,2.8C51,13.4,52.1,14.5,53.6,14.5z"/>
	</g>
</g>
</svg>
